<svg width="56px" height="60px" viewBox="0 0 56 60" version="1.1" xmlns="http://www.w3.org/2000/svg" xmlns:xlink="http://www.w3.org/1999/xlink">
    <!-- Generator: Sketch 40.1 (33804) - http://www.bohemiancoding.com/sketch -->
    <title>29 -Android- (social, media, communication, retro)</title>
    <desc>Created with Sketch.</desc>
    <defs></defs>
    <g id="Page-1" stroke="none" stroke-width="1" fill="none" fill-rule="evenodd">
        <g id="Icons" transform="translate(-1082.000000, -618.000000)">
            <g id="29--Android--(social,-media,-communication,-retro)" transform="translate(1083.000000, 619.000000)">
                <path d="M42,14.0001 L12,14.0001 C12.377,9.7261 16.563,2.0001 27.094,2.0001 C37.125,2.0001 41.623,9.7261 42,14.0001" id="Fill-126" fill="#e3f030"></path>
                <path d="M4,40.0001 L4,40.0001 C1.8,40.0001 0,38.2001 0,36.0001 L0,22.0001 C0,19.8001 1.8,18.0001 4,18.0001 C6.2,18.0001 8,19.8001 8,22.0001 L8,36.0001 C8,38.2001 6.2,40.0001 4,40.0001" id="Fill-129" fill="#d9e61e"></path>
                <path d="M50,40.0001 L50,40.0001 C47.8,40.0001 46,38.2001 46,36.0001 L46,22.0001 C46,19.8001 47.8,18.0001 50,18.0001 C52.2,18.0001 54,19.8001 54,22.0001 L54,36.0001 C54,38.2001 52.2,40.0001 50,40.0001" id="Fill-130" fill="#d9e627"></path>
                <path d="M38,45.0001 L38,55.0001 C38,56.6501 36.65,58.0001 35,58.0001 C33.35,58.0001 32,56.6501 32,55.0001 L32,45.0001 L22,45.0001 L22,55.0001 C22,56.6501 20.65,58.0001 19,58.0001 C17.35,58.0001 16,56.6501 16,55.0001 L16,45.0001 L12,45.0001 L12,18.0001 L42,18.0001 L42,45.0001 L38,45.0001 Z" id="Fill-131" fill="#dbe825"></path>
                <path d="M24,9.0001 C24,7.8951 23.105,7.0001 22,7.0001 C20.895,7.0001 20,7.8951 20,9.0001 C20,10.1051 20.895,11.0001 22,11.0001 C23.105,11.0001 24,10.1051 24,9.0001" id="Fill-132" fill="#FFFFFF"></path>
                <path d="M34,9.0001 C34,7.8951 33.105,7.0001 32,7.0001 C30.895,7.0001 30,7.8951 30,9.0001 C30,10.1051 30.895,11.0001 32,11.0001 C33.105,11.0001 34,10.1051 34,9.0001" id="Fill-133" fill="#FFFFFF"></path>
                <path d="M18.9155,3.9706 L17.0005,0.0006" id="Stroke-134" stroke="#deeb28" stroke-width="2" stroke-linecap="round" stroke-linejoin="round"></path>
                <path d="M35.051,3.9961 L37,0.0001" id="Stroke-135" stroke="#deeb2a" stroke-width="2" stroke-linecap="round" stroke-linejoin="round"></path>
                <path d="M42,14.0001 L12,14.0001 C12.377,9.7261 16.563,2.0001 27.094,2.0001 C37.125,2.0001 41.623,9.7261 42,14.0001 L42,14.0001 Z" id="Stroke-212" stroke="#000000" stroke-width="2"></path>
                <path d="M4,40.0001 L4,40.0001 C1.8,40.0001 0,38.2001 0,36.0001 L0,22.0001 C0,19.8001 1.8,18.0001 4,18.0001 C6.2,18.0001 8,19.8001 8,22.0001 L8,36.0001 C8,38.2001 6.2,40.0001 4,40.0001 L4,40.0001 Z" id="Stroke-215" stroke="#000000" stroke-width="2"></path>
                <path d="M50,40.0001 L50,40.0001 C47.8,40.0001 46,38.2001 46,36.0001 L46,22.0001 C46,19.8001 47.8,18.0001 50,18.0001 C52.2,18.0001 54,19.8001 54,22.0001 L54,36.0001 C54,38.2001 52.2,40.0001 50,40.0001 L50,40.0001 Z" id="Stroke-216" stroke="#000000" stroke-width="2"></path>
                <path d="M38,45.0001 L38,55.0001 C38,56.6501 36.65,58.0001 35,58.0001 C33.35,58.0001 32,56.6501 32,55.0001 L32,45.0001 L22,45.0001 L22,55.0001 C22,56.6501 20.65,58.0001 19,58.0001 C17.35,58.0001 16,56.6501 16,55.0001 L16,45.0001 L12,45.0001 L12,18.0001 L42,18.0001 L42,45.0001 L38,45.0001 L38,45.0001 Z" id="Stroke-217" stroke="#000000" stroke-width="2"></path>
                <path d="M24,9.0001 C24,7.8951 23.105,7.0001 22,7.0001 C20.895,7.0001 20,7.8951 20,9.0001 C20,10.1051 20.895,11.0001 22,11.0001 C23.105,11.0001 24,10.1051 24,9.0001" id="Fill-218" fill="#000000"></path>
                <path d="M34,9.0001 C34,7.8951 33.105,7.0001 32,7.0001 C30.895,7.0001 30,7.8951 30,9.0001 C30,10.1051 30.895,11.0001 32,11.0001 C33.105,11.0001 34,10.1051 34,9.0001" id="Fill-219" fill="#000000"></path>
                <path d="M18.9155,3.9706 L17.0005,0.0006" id="Stroke-220" stroke="#000000" stroke-width="2" stroke-linecap="round" stroke-linejoin="round"></path>
                <path d="M35.051,3.9961 L37,0.0001" id="Stroke-221" stroke="#000000" stroke-width="2" stroke-linecap="round" stroke-linejoin="round"></path>
            </g>
        </g>
    </g>
</svg>